<svg xmlns="http://www.w3.org/2000/svg" data-name="Layer 1" width="263.6064" height="590.3803" viewBox="0 0 263.6064 590.3803" xmlns:xlink="http://www.w3.org/1999/xlink"><path d="M672.36585,549.42966c4.15041,21.06765-14.42639,43.5251-35.8986,43.39772-14.26157-.08462-28.45178,2.23861-42.7136,2.24039s-29.162-2.60871-40.45065-11.32454-17.7649-24.748-12.10648-37.8393A438.31566,438.31566,0,0,0,486.3568,714.55815a9.18155,9.18155,0,0,0,17.85834,3.84464l39.46111-121.45747c-5.98971,6.74772,1.962,17.31558,10.46524,20.33279s18.77426,3.48664,24.45924,10.493c21.32339,26.2798,64.69352,30.70232,90.88246,9.26743S699.9103,572.21515,672.36585,549.42966Z" transform="translate(-468.1968 -154.80985)" fill="#072d94"/><path d="M580.11918,310.0943c-5.82876.14446-5.81364,8.68383,0,8.84408C585.94821,318.79392,585.93283,310.25462,580.11918,310.0943Z" transform="translate(-468.1968 -154.80985)"/><path d="M663.94632,308.78454c-5.82875.14447-5.81364,8.68376,0,8.84408C669.77535,317.48416,669.76,308.9448,663.94632,308.78454Z" transform="translate(-468.1968 -154.80985)"/><path d="M559.81731,270.63817a62.23527,62.23527,0,0,0,19.87327-1.30112A70.96331,70.96331,0,0,0,559.81731,270.63817Z" transform="translate(-468.1968 -154.80985)"/><path d="M641.0248,267.36367c9.38658,1.49032,20.82008,2.00293,29.33516.553A76.58454,76.58454,0,0,0,641.0248,267.36367Z" transform="translate(-468.1968 -154.80985)"/><path d="M623.99762,355.12c-4.3273,4.51806-8.30509,10.66537-5.35994,17.0043C617.77778,365.88451,621.54477,360.541,623.99762,355.12Z" transform="translate(-468.1968 -154.80985)"/><path d="M657.47574,384.09547a52.47849,52.47849,0,0,1-8.55906,10.2485c-10.08185,8.98-22.15717,13.68116-36.30937,12.8299-7.03764-.30445-13.87745-2.72856-20.7-4.90091,6.08867,3.80026,12.38328,7.54775,19.49622,9.01722,16.95188,3.76693,32.52807-2.88294,41.97835-17.353a47.24836,47.24836,0,0,0,4.81016-11.00814C657.95239,383.31654,657.71649,383.70809,657.47574,384.09547Z" transform="translate(-468.1968 -154.80985)"/><path d="M711.469,353.24772c-.04885-.33568-.09906-.67151-.14764-1.00672-.11039,2.28247-.26693,4.56245-.45154,6.84007-.61213,7.17894-1.41212,14.31334-2.2569,19.99142-3.61882,29.77044-10.0222,42.9531-30.32137,62.58285-9.82247,9.82011-19.83684,15.54415-33.93263,22.33139-6.28166,2.96215-18.51217,6.41437-26.7066,6.1218-7.58554-.04656-12.28018-1.38917-21.31859-3.6062-13.96192-4.4659-25.5606-9.0513-38.46722-18.84833-2.51709-2.11878-4.93755-4.33783-7.24519-6.68421a137.09545,137.09545,0,0,1-10.09588-11.36541,47.31186,47.31186,0,0,1-7.30025-13.62826c-5.32729-16.971-8.37311-29.742-8.38742-45.57625.01782-8.134.59837-16.35891,4.19938-23.79351a45.97793,45.97793,0,0,0-7.31618,20.387c-2.61884,14.01328-1.05423,28.3644,1.783,42.21984,1.40915,6.30635,3.10979,12.643,6.11863,18.39564a85.81081,85.81081,0,0,0,12.07964,16.03111c11.98842,13.86557,27.97027,22.60379,44.98827,28.82491,24.29343,8.82364,41.70467,8.44538,62.26-.6236-1.814,8.68828-3.33191,17.44073-4.2798,26.26734a337.70021,337.70021,0,0,0-1.22669,36.01133c5.439-19.08854,7.00174-41.81459,6.94047-62.91934,3.77644-1.72763,7.66354-3.73933,11.72608-6.042,10.78169-5.75771,20.16125-13.78838,28.51492-22.64974,12.95412-12.67943,21.41818-28.07809,22.38982-46.41557A216.50219,216.50219,0,0,0,711.469,353.24772Z" transform="translate(-468.1968 -154.80985)"/><polygon points="150.604 7.614 150.605 7.614 150.605 7.614 150.604 7.614"/><path d="M731.47394,268.63558c.15951-2.98449.72171-5.94974-.13252-8.88977-1.16165-4.99389-1.756-5.6293-3.69628-10.78243-1.37136-3.5425-3.13138-7.00154-3.97185-10.71982.62212-1.65752,2.33167-6.54129,2.13383-10.994-.56706-6.36963-1.64423-7.12319.661-13.37651.79836-4.1686,1.47473-8.79415-.4977-12.73347-5.02931-8.01475-14.34653-11.745-21.64867-17.30106-14.1935-11.65293-1.3352-11.71541-30.46442-14.36914-5.63875-.70815-8.7793-.62151-11.19464-2.06817-.03266-.01849-.04858-.02827-.07719-.04474a29.64073,29.64073,0,0,0-12.58328-6.37321c-6.31916-1.14276-12.793-.9014-19.15452-1.71663a23.7156,23.7156,0,0,1-3.29845-.57509,8.75064,8.75064,0,0,1-3.03989-1.05153c-3.92839-2.80406-9.0492-3.33509-13.70147-2.41716-10.64,3.42733-21.16933,11.65752-29.44473,13.9624a15.82131,15.82131,0,0,1-1.78674.42806,5.48334,5.48334,0,0,1-.67664.00648,7.55658,7.55658,0,0,1-.93655-.24129,23.97085,23.97085,0,0,0-11.33256-2.38093c-5.31784-.04858-10.3396,2.357-14.27771,5.82148-4.62041,4.20571-7.25922,10.05114-9.45378,15.789-5.286,13.72029-4.58668,28.87281-1.475,43.0232.12685.538.53791,2.64947.72468,3.54155-2.018,2.44064-2.98456,4.07657-6.21607,9.66418-5.53025,8.69435-8.76419,18.01521-11.494,27.90016a5.332,5.332,0,0,0,.29662,3.9618,1.03275,1.03275,0,0,0,.02267.25977,6.52218,6.52218,0,0,1-.21106,1.66292,89.89182,89.89182,0,0,0-2.18592,10.60781c-.31848,2.78261-.821,5.79793.29473,8.45442,2.556,3.515,6.897-.452,9.67808-1.773-2.52249.78345-7.68675,3.98912-8.52452.69371-.19676-6.05615,2.77835-11.69193,4.63337-17.32259a8.49223,8.49223,0,0,0,.43805-3.68029,1.81448,1.81448,0,0,0-.26747-.82758c1.46528-4.90448,3.05769-7.55875,5.29786-12.76991,1.53627-4.36759,3.55809-7.269,6.8031-12.20157,1.13007-1.68424,2.23045-3.39048,3.35054-5.08282a367.05478,367.05478,0,0,0-9.63435,41.23639c-2.93192,20.12442-4.15349,40.45935-6.00015,60.70226,6.87031-23.02341,11.17035-46.696,14.24964-70.49935,1.04883-8.017,3.16134-22.504,4.276-35.53456,1.29174-1.3134,2.83233-2.5764,2.77241-4.59579-.02456-4.271-1.6105-8.40907-2.10036-12.64771a83.191,83.191,0,0,1-.88824-14.80624c.01835-1.93073.24291-3.84682.45181-5.76392,2.09523-11.018,5.12594-19.83562,11.39652-25.30021a13.606,13.606,0,0,1,10.05917-3.13084c4.69788.30073,2.64772.125,7.67191,1.95306,4.11948,1.11961,8.15692-.79674,11.851-2.4488,5.76506-2.67478,11.26913-5.86014,16.87279-8.85036,5.5424-2.68577,5.72971-3.496,10.92609-3.25438.10337.00991.20647.02435.30958.03589a14.09118,14.09118,0,0,1,1.82479.37644c.237.063.46747.14751.69769.23225-.47124-.1759-.75734-.39655.00027.00014.07287.02685.14872.04453.22078.07341-.07557-.02179-.1498-.047-.22051-.07334l.05533.02847a21.31,21.31,0,0,0,10.34392,3.68164c8.30887,1.11415,18.39422.85538,21.643,2.6689a36.9729,36.9729,0,0,1,5.07115,2.97943,17.10032,17.10032,0,0,0,3.438,2.64333c3.58913,1.90644,7.78337,1.57716,11.70016,2.16251,7.71266.91206,10.32745.95612,17.666,2.5347.31443.08657.62239.19554.929.30694q.13764.06974.271.14629c.55626.56024.48771.84316,2.17269,2.85054,5.0501,6.09407,11.92688,10.21551,18.38693,14.634,3.45364,2.25494,4.16915,2.93469,7.88729,6.78677.09231.137.15708.226.21025.29513a7.71609,7.71609,0,0,1,.46423.83c.05209.17017.11552.39095.16626.61732-.01215,4.20606.11687,4.494-.54007,6.96788-1.94733,4.378-1.343,9.12255-.84506,13.72852a12.35873,12.35873,0,0,1-.0475,2.10671,45.444,45.444,0,0,1-1.10848,5.27405c-.78271,2.1148-1.39187,4.3246-.76274,6.56976,2.06312,7.048,7.1591,14.70044,8.99523,22.39981.06477.27651.12982.5533.18785.83143.03509.63136-.02267,1.26414-.01619,1.89577a55.29823,55.29823,0,0,0,.48447,6.25838c.50876,4.39748,1.33492,8.74712,2.18538,13.08853a25.517,25.517,0,0,1-.13846,7.28986c-1.43128,2.891-5.04038,3.5338-7.82683,4.52554-1.77837.55708-3.54946,1.14026-5.32621,1.70193q1.21293-.16013,2.42748-.308c5.11947-.71571,12.89933-.54695,13.9846-7.00228a26.76723,26.76723,0,0,0,.7711-8.98106C731.39729,277.50827,731.31929,273.06828,731.47394,268.63558Z" transform="translate(-468.1968 -154.80985)"/><path d="M708.65228,242.59077c.79621-.02739,1.59214-.05715,2.38646-.08056,2.56594-.06329.06477-.17166-1.16354-.36538q-.64209-.08664-1.28581-.16943c-.09122-.88608-.17975-1.77284-.27205-2.65865q-.15991-1.41111-.32739-2.82147c-.19946,1.77392-.366,3.55128-.54655,5.32722a53.30715,53.30715,0,0,1-6.57611-1.19991c-1.68256-.55687-3.31545-1.25692-5.01987-1.751-3.6064-1.18142-7.45518-1.28648-11.05024-2.51763-5.94374-1.83734-9.73341-4.21523-16.32976-6.28448-14.05747-3.91868-28.81938-6.62665-43.43122-4.89632-5.09868.84283-9.928,2.82862-15.00293,3.80329-4.80314,1.254-13.3058.4732-20.524,2.47505-14.536,4.203-21.23357,6.61822-36.35579,2.001,11.04268,5.22486,18.65926,6.251,30.683,4.05855,6.11675-1.02238,8.99712-1.8619,15.45609-1.64328a57.16812,57.16812,0,0,0,14.96784-.69405c3.89331-.638,7.67812-1.82493,11.572-2.44725a140.263,140.263,0,0,1,17.94187-.0496c9.7021.61983,15.22479,1.581,25.28369,3.5137,7.68324,2.15609,15.28551,4.93694,23.37738,4.85023,2.56756.16586,5.12972.88912,8.34639,1.44545a51.48345,51.48345,0,0,0,6.57935.13947c-.44614,4.46111-.85585,8.92593-1.18918,13.39683-1.60563,20.19816-1.01617,40.48256.63777,60.65643.84344,12.828,1.74626,25.65548,3.14056,38.43733,1.60024-15.92241,3.15756-31.896,3.06741-47.91453C712.78148,285.61107,710.8606,264.06246,708.65228,242.59077Z" transform="translate(-468.1968 -154.80985)"/><path d="M605.85279,440.34633a95.08437,95.08437,0,0,0,29.13084-5.41042A95.10008,95.10008,0,0,0,605.85279,440.34633Z" transform="translate(-468.1968 -154.80985)"/><path d="M658.38747,534.97028a28.87875,28.87875,0,0,0-10.07375-2.881c1.2939.39844,3.075,1.14943,4.00154,1.52426,9.45,4.11617,13.74168,12.7299,7.89457,20.75159-6.93994,8.63019-25.83806,11.73505-35.50345,12.70919a237.52221,237.52221,0,0,1-32.005-.09737c-10.02544-.67144-15.461-.96125-24.434-3.06451-5.98044-1.57561-8.96877-2.32782-13.60349-4.84929a9.04676,9.04676,0,0,1-5.22607-7.1035,9.45266,9.45266,0,0,1,2.32032-7.32778c1.44829.25255,2.89036.51969,4.32191.74067-1.228-.48852-2.42559-.95153-3.60235-1.37939,4.32218-2.4652,9.35446-1.57608,14.106-1.04242-.013.16113-.024.32239-.037.48352q.07692-.23511.15493-.47037c.48393.05378.9657.10486,1.44261.14656-.44938-.126-.90443-.258-1.36191-.39169q.12468-.37712.2483-.75431a191.58208,191.58208,0,0,0,10.162-66.71656c-3.9373,17.802-8.05247,35.6218-9.517,53.83714-.40674,4.52332-.71118,9.05481-1.07042,13.582-5.246-1.53539-10.969-3.314-16.07632-.63332a10.59975,10.59975,0,0,0-1.15463.912c-6.75425-2.08248-13.00324-2.50974-20.389,1.27966-9.25433,4.22225-15.86121,12.20616-20.69269,20.942-6.64845,11.51049-11.0937,24.10618-14.495,36.91664-5.65467,21.21481-10.3396,42.70128-14.63127,64.22971-1.79943,10.44263-3.03638,24.03594-4.24391,31.66959-1.86987,13.70471-4.34674,27.31252-6.3494,40.99618-.129.91415-.25127,1.82952-.37624,2.7438.42294-1.36043.85963-2.71654,1.29687-4.07252,5.38424-15.821,10.39979-31.785,13.84371-48.15635q6.325-33.31227,13.85342-66.3794c4.50086-19.62206,9.68725-38.73226,17.4682-54.558,3.71409-7.41435,6.13-12.11743,11.75144-17.00484,3.754-3.26424,8.05813-6.14846,12.95655-7.29945a25.17083,25.17083,0,0,1,8.918-.163,13.09985,13.09985,0,0,0-.0332,16.24622c6.74507,7.357,19.422,10.7288,28.99913,12.55926,11.43108,1.918,23.06107,2.22755,34.63006,2.33686,10.05971.09912,20.18554-.8873,29.77158-4.0709,7.415-2.33167,14.90927-5.58383,20.497-11.12588C669.90086,552.06648,668.3932,540.18205,658.38747,534.97028Z" transform="translate(-468.1968 -154.80985)"/><path d="M693.24531,550.35775c-2.38564-3.31222-4.99665-6.83191-8.77067-8.62176a32.93845,32.93845,0,0,0-19.0606-2.39556,32.2265,32.2265,0,0,1,17.82419,5.3783c2.38052,1.85569,3.872,4.61886,5.33269,7.20673,7.14668,12.67464,2.743,35.11371,1.23857,51.35177-1.76866,16.61214-3.98885,33.19068-5.00233,49.87225-1.072,19.41457-.99269,38.87146-1.19943,58.30884-.00486,1.1128-.00945,2.22587-.01971,3.33826.12767-.62684.25965-1.25274.38839-1.87945,4.42393-21.07379,7.01794-42.46079,9.52639-63.82985,1.87472-15.46911,3.32867-30.98519,5.17749-46.45761C700.28133,586.5713,702.67,564.29707,693.24531,550.35775Z" transform="translate(-468.1968 -154.80985)"/><path d="M545.06323,648.77757c-13.73467,29.34177-24.582,60.30941-28.19267,92.64235,7.60956-21.64463,16.75674-42.80047,22.33989-65.10365,2.52734-9.5971,4.51839-19.32254,6.63684-29.015C546.14472,646.19564,545.25486,648.45423,545.06323,648.77757Z" transform="translate(-468.1968 -154.80985)"/><path d="M650.244,646.81283A248.71624,248.71624,0,0,0,638.04862,694.697c-2.29766,16.71935-2.60184,33.6464-2.04153,50.49315,5.89084-27.63722,10.24675-51.6521,12.74252-78.39494.69769-6.92475,1.1379-13.87488,1.93653-20.78924C650.86913,644.92556,650.41975,646.4594,650.244,646.81283Z" transform="translate(-468.1968 -154.80985)"/><path d="M643.6099,617.57147c-3.40235,6.94837-9.145,13.13279-14.84341,15.23268-5.415,1.952-9.962,1.47035-11.12663.16977.52334-9.80277,2.24368-22.498,2.53247-33.31133-2.30548,9.11351-4.57588,18.23964-6.58421,27.42373-.40943,2.60156-1.54571,5.434-.55059,8.00793,2.54084,4.997,9.3971,5.0557,14.14788,3.72442,13.83831-3.86409,18.76669-19.26546,21.86136-31.771.13846-.58345.26639-1.16988.38919-1.7563C647.67271,609.466,645.7378,613.57013,643.6099,617.57147Z" transform="translate(-468.1968 -154.80985)"/></svg>