<svg xmlns="http://www.w3.org/2000/svg" data-name="Layer 1" width="358.24167" height="598.17394" viewBox="0 0 358.24167 598.17394" xmlns:xlink="http://www.w3.org/1999/xlink"><path d="M518.56517,538.42007l-17.03081-14.92062q-26.5833,63.18223-53.16657,126.36446C492.8026,631.44369,521.03348,580.26258,518.56517,538.42007Z" transform="translate(-420.87916 -150.91303)" fill="#a0fff0"/><path d="M543.2128,528.64246c-11.4293,25.833,2.069,59.78023,28.1167,70.71143s59.72949-3.21639,70.15856-29.46917c4.91627-12.37556,23.6116-14.12956,33.75752-5.50492s12.824,23.38584,11.456,36.63168-6.05228,25.9414-7.96451,39.11969-.54009,27.88179,8.46568,37.691a150.10055,150.10055,0,0,0,2.648-117.70481c-5.5618-13.68368-24.24534-20.04681-37.00287-12.60221C618.26844,567.69376,569.67267,559.18114,543.2128,528.64246Z" transform="translate(-420.87916 -150.91303)" fill="#a0fff0"/><path d="M572.97372,315.87685c-5.82876.14446-5.81365,8.68383.00027,8.84408C578.80275,324.57646,578.78763,316.03717,572.97372,315.87685Z" transform="translate(-420.87916 -150.91303)"/><path d="M663.089,314.57087c-5.82876.14446-5.81364,8.68376.00027,8.84408C668.918,323.27049,668.90291,314.73112,663.089,314.57087Z" transform="translate(-420.87916 -150.91303)"/><path d="M601.81847,265.54989a29.51247,29.51247,0,0,0-17.93054-16.3832c-6.23037-1.65779-13.12172-1.81191-19.20257.50876-9.28051,3.60667-15.05745,12.37195-19.85222,20.65,6.25709-7.2846,13.06505-14.5356,20.84329-16.93467,3.97941-1.17191,5.56939-1.20436,9.8249-1.23986a27.82877,27.82877,0,0,1,16.15486,4.51138A34.24469,34.24469,0,0,1,601.86,266.31053c.25155.3282.49122.66578.73656.99829C602.34639,266.71849,602.08891,266.13139,601.81847,265.54989Z" transform="translate(-420.87916 -150.91303)"/><path d="M707.45029,263.6004a29.91735,29.91735,0,0,0-3.77752-10.9186c-3.9149-7.26847-12.145-10.62238-20.06248-11.03108a41.57548,41.57548,0,0,0-20.77312,3.28563c-6.01957,2.22667-10.77413,6.74884-14.7557,11.65684a65.22552,65.22552,0,0,0-9.28428,16.31167c6.14535-9.135,12.91012-17.03912,22.22761-21.90926a56.53188,56.53188,0,0,1,12.95816-3.79925c6.71538-.59648,19.32889-1.5026,25.98327,5.78018,3.48144,3.59115,5.64442,7.96131,7.45275,13.10823C708.60384,269.95978,707.62059,264.99065,707.45029,263.6004Z" transform="translate(-420.87916 -150.91303)"/><path d="M602.07568,178.22828c-4.79369-8.91567-11.47857-22.91525-21.34693-26.59513-14.055-3.84358-27.76514,8.43566-34.99144,19.35878-8.97175,14.49821-15.35542,30.41617-22.57174,45.82233-7.3572,16.67516-15.46229,33.01146-23.11936,49.5512C493.072,281.6034,484.846,296.257,478.36056,311.715c-5.64172,14.52831-6.6004,27.24579-1.237,42.06472,2.20778,6.53792,5.24659,12.7469,8.02035,19.05419,4.34188,10.3896,9.277,20.72251,16.8261,29.20155,5.56723,5.60124,11.90313,10.86888,19.29893,13.81827a44.55141,44.55141,0,0,1-9.55986-7.88222,60.2245,60.2245,0,0,1-8.21036-10.08137c-6.51025-10.67346-8.86108-19.20116-13.20674-30.97676-5.86439-14.4808-10.79519-28.35116-8.17257-39.35451,3.15729-15.87606,10.49479-27.1545,17.80287-42.89952,6.01256-12.32707,11.71744-24.801,17.45092-37.25921,4.21422-8.96129,8.57472-17.8549,12.36007-27.01051,7.44006-16.06141,16.00156-38.13038,24.8845-49.61287,7.93506-8.974,16.30817-14.26367,24.17413-12.11932,2.72437.79519,7.84464,6.45209,11.38141,11.70455,13.23536,18.41568,18.19531,30.2408,19.14508,52.79715C611.03582,207.24118,609.6963,192.586,602.07568,178.22828Z" transform="translate(-420.87916 -150.91303)"/><path d="M779.09307,339.5136a350.27086,350.27086,0,0,0-3.53137-40.14032c-2.43936-17.17421-5.83983-34.1858-9.85405-51.05765-2.41453-10.30627-4.18426-20.87555-8.20388-30.7132a145.60434,145.60434,0,0,0-21.80306-35.09212c-11.39355-13.72731-29.82448-19.71531-47.29456-17.967-14.56488,1.29775-28.93328,4.67561-42.88818,8.97606-8.75259,2.8438-17.55673,6.06466-25.11527,11.42554a77.397,77.397,0,0,0-11.08426,10.57765c4.35835-3.57212,8.57419-6.96544,13.664-9.55554a91.57591,91.57591,0,0,1,18.45252-6.20715,393.81515,393.81515,0,0,1,41.59617-7.32664c9.58819-.77819,16.42449-1.23169,23.92258,1.02663,9.62949,2.77815,15.027,6.01148,21.98821,13.86193,8.15718,8.9102,18.2115,26.46058,22.11614,37.16036,2.6434,8.37574,4.44174,16.98042,6.37126,25.54023,1.93194,8.58072,4.0485,17.12225,5.77532,25.74758,3.594,18.762,5.91728,32.21107,7.06436,50.60225a177.25164,177.25164,0,0,1,.24156,25.79826c-2.27877,21.91506-8.83086,45.5446-26.95194,60.41447-3.95862,3.4921-14.97108,9.4886-22.95013,12.78023-7.25923,2.99825-20.48622,7.48318-30.57751,9.08611q-2.11008.40617-4.22852.76942,1.17528.01993,2.3511.02132a119.76011,119.76011,0,0,0,46.68378-8.8235c23.98358-9.14988,35.89454-31.36709,41.08039-55.29642A140.48669,140.48669,0,0,0,779.09307,339.5136Z" transform="translate(-420.87916 -150.91303)"/><path d="M640.01956,405.25738a18.767,18.767,0,0,0,1.90064-.63784,42.34274,42.34274,0,0,0,19.70458-16.27746A31.09063,31.09063,0,0,0,664.934,381.438c-.32388.46565-.8375,1.13439-1.09877,1.46974a53.37869,53.37869,0,0,1-8.85028,8.62668c-4.7713,3.48124-13.64615,9.69514-21.0136,10.75686a68.17018,68.17018,0,0,1-19.90216-.39007c4.64822,1.83518,9.36283,3.55181,14.38972,3.90734a30.16855,30.16855,0,0,0,11.32446-.49128" transform="translate(-420.87916 -150.91303)"/><path d="M606.915,360.4017a25.07992,25.07992,0,0,1,8.72748-10.9381A20.74746,20.74746,0,0,0,602.212,364.81308c-.85046,5.123,1.40861,11.1078,6.47706,13.10519a23.51058,23.51058,0,0,0,3.37429,1.14317c-1.0294-.64425-2.03559-1.32784-2.99967-2.06656C603.36175,372.84692,604.64486,364.67428,606.915,360.4017Z" transform="translate(-420.87916 -150.91303)"/><path d="M720.263,673.2264c.4313-3.405.83777-6.81329,1.18108-10.23,1.86339-19.43381,4.05444-38.95587,3.262-58.50466a172.22575,172.22575,0,0,0-6.13564-35.28712c-5.456-17.86164-17.60476-34.62338-35.6079-41.2086a54.04784,54.04784,0,0,0-19.49406-4.6777,92.255,92.255,0,0,0-13.14845.56308c-1.91682-6.635-8.47188-12.16243-14.00537-15.91775a32.5089,32.5089,0,0,0-6.306-3.49885q.31863.219.63832.43987c7.3904,5.91168,17.73944,17.031,14.4858,25.09212-3.24744,6.33685-15.80129,4.26145-27.10227,5.23822-6.49569.36862-12.99056.87751-19.50055.875a186.14254,186.14254,0,0,1-23.75875-1.81454c-8.37337-1.21448-16.80046-2.26325-24.91824-4.743-6.12727-1.90928-11.82432-4.0535-15.7438-9.13436a6.6335,6.6335,0,0,1-1.65881-3.9931c-.17-2.14436.1865-4.00518,1.57082-4.99167,2.4183-1.77581,5.57451-1.87162,8.4978-1.68363,3.26417.20161,6.52213.49182,9.78144.75713q-.07854,2.06009-.13279,4.11969c.00648.27368-.10148,1.11752.05155.5595.49905-1.51529.96436-3.04137,1.42211-4.56954.20458.016.40916.03455.61375.05013q-.28988-.07965-.57948-.16005c.0753-.25175.16-.50059.23428-.75261a198.01527,198.01527,0,0,0,5.12432-22.19212c1.71845-10.18043,2.22748-20.50774,2.825-30.80753a69.16224,69.16224,0,0,0,17.49491,7.27063,121.52688,121.52688,0,0,0,35.07728,3.71572,126.55771,126.55771,0,0,0,17.81771-1.28554c-2.93894,13.65957-4.85118,29.73623-3.74054,41.44442a126.65532,126.65532,0,0,0,5.14429-41.66121,75.50462,75.50462,0,0,0,22.50615-7.13812c14.58755-7.46354,26.19649-19.58049,36.58116-32.03294,8.528-11.19531,16.7535-22.80546,22.847-35.53037a86.48441,86.48441,0,0,0,5.476-15.3768,61.18288,61.18288,0,0,0,.736-15.75609c-.13117-1.96689-.18677,1.53249-.31255,2.19173-1.00618,7.13359-2.53355,13.70632-5.80339,19.51234-4.83552,10.31916-15.84366,24.192-19.49379,28.91364-9.20683,12.0123-19.09785,23.62313-30.72136,33.37637-2.16433,1.67837-4.36833,3.29737-6.6722,4.78182a83.64109,83.64109,0,0,1-11.1134,5.85541,87.24065,87.24065,0,0,1-11.54578,3.31262c-6.82523,1.63707-12.89825,1.95529-21.70508,2.09786-10.44432.18326-18.564-.29223-26.86962-2.00434a101.62327,101.62327,0,0,1-12.52741-3.4,80.56414,80.56414,0,0,1-12.85749-6.66059,28.15171,28.15171,0,0,1-2.72869-1.9362c-9.74554-8.30718-17.74592-17.05673-23.49074-26.14865-10.352-15.23828-16.00021-30.71522-17.16132-48.07106a145.67149,145.67149,0,0,1-.79269-15.23606c.20566-4.50436,1.26367-8.71642,2.14084-13.33454-1.43532,4.27063-3.05176,8.51528-3.82475,12.96923a139.066,139.066,0,0,0-.98405,19.2577c-.19217,18.99394,6.79986,37.34376,17.71326,52.703a121.95609,121.95609,0,0,0,22.92368,24.30935c1.53573,1.12912,3.13057,2.18322,4.76131,3.18212-5.36238,17.50463-7.69728,35.78212-8.41737,54.05556-3.13354-.86665-6.26762-1.73222-9.4322-2.47775-3.51976-.877-7.41253-1.15632-10.69478.64675A7.94916,7.94916,0,0,0,528.224,514.092c-15.22074-5.46986-33.066-9.08125-46.79714,1.70253-9.94123,7.67886-16.56322,18.88861-21.5364,30.24641a359.93714,359.93714,0,0,0-14.8256,40.30341c-4.88492,17.94552-9.32667,36.01376-13.96517,54.0254-6.12484,25.11136-8.99225,50.96379-9.7056,76.775-.14386,3.33947-.30606,6.678-.515,10.014q.35626-1.3854.70228-2.77417,2.88659-13.47057,5.92053-26.909c13.50147,4.71056,27.56434,7.48567,41.17593,11.79517a122.05359,122.05359,0,0,1,12.29071,5.15387c-1.01321,9.04286-1.91845,18.09909-3.04367,27.129-.06342,1.0707-.47367,3.24164.19838.87084,2.92032-8.4391,5.32108-17.02826,7.43952-25.69124.89634.46733,1.81265.95275,2.75919,1.46259,1.21563.65613,2.4156,1.34248,3.61261,2.03073q-1.11373-1.05-2.25528-2.06987c-1.20376-1.062-2.44449-2.08929-3.70276-3.09656,1.34923-5.62067,2.58294-11.27075,3.7589-16.9319,2.49063-11.68235,4.15861-23.49365,5.59556-35.341,1.1236.2056,2.24341.43035,3.37.62259q2.32182.42186,4.64039.86334c-.94924-.41645-1.89928-.8319-2.85311-1.23762-1.63559-.73386-3.2809-1.43054-4.93053-2.10961,1.49524-12.53388,2.76377-25.103,4.49842-37.59895-3.90356,11.6613-7.15046,23.51766-9.87915,35.49576a138.89383,138.89383,0,0,0-51.597-9.05488q7.05938-29.40859,14.56812-58.70769c6.73994-22.62092,17.70733-55.93352,32.63117-69.6248,10.05324-9.65864,25.97625-9.677,42.3581-6.91633a16.30892,16.30892,0,0,0-.24885,3.05574c.60674,6.61761,6.05359,11.65536,11.5053,14.82608,10.75092,6.23246,23.24486,8.16164,35.36931,9.91693a172.81477,172.81477,0,0,0,27.45719,1.87966c9.44811-.218,18.81715-1.58924,28.20859-2.5343,7.24411-.79951,16.54379-1.82709,19.67085-9.51937a13.27163,13.27163,0,0,0,.31632-7.88755c7.0873.56091,13.42752,1.018,20.22981,3.57509,5.28,1.59558,15.76917,8.27614,17.58965,9.67105,3.77077,2.7102,9.0905,8.98747,9.83515,10.12834,8.738,12.419,12.10313,22.14832,14.92061,37.58134a126.61683,126.61683,0,0,1,2.64664,29.85026c-.27854,18.67356-2.60912,37.19018-4.66387,55.72934-6.761-1.611-13.72387-2.95567-19.90431-3.92245-13.18111-1.76886-24.44565-2.64509-39.32928-6.323,18.306,9.20325,38.50959,12.45109,58.757,14.60759-.67071,6.22707-1.29121,12.45811-1.76974,18.70029-.627,6.82307-.89445,13.65613-.95328,20.49283-17.15269-4.18277-35.10859-4.04108-52.66126-3.21194a231.43169,231.43169,0,0,0,32.21067,4.394c6.812.38487,13.63156.16248,20.4487.1502-.04724,10.23555.35464,20.47825.77137,30.70773q.03725,1.34976.05722,2.70021c.08664-.42509.17732-.84964.26234-1.27541,1.88282-9.77956,3.13084-19.66545,4.59586-29.51248,2.12087-14.06961,4.56886-28.09739,6.43954-42.20311,4.03905.3865,8.06866.75977,12.07344,1.15794A109.87888,109.87888,0,0,0,720.263,673.2264Zm-230.7129-11.53485q-3.49021,15.8274-5.89057,31.87552c-.92036,5.97693-1.67662,11.97411-2.3681,17.97911a59.57367,59.57367,0,0,0-15.46014-7.86083c-12.45453-3.55027-25.49448-4.53567-38.281-6.42416q5.26427-23.44344,10.86563-46.81023C455.57372,653.66054,472.4395,658.25086,489.55008,661.69155Z" transform="translate(-420.87916 -150.91303)"/><path d="M639.09678,689.94447c-1.275,14.1576-.78056,28.374-.38,42.5589,2.88253-10.18993,4.6026-26.434,6.07355-36.984,2.22911-18.73483,2.91169-37.61359,5.07358-56.35916A216.97748,216.97748,0,0,0,639.09678,689.94447Z" transform="translate(-420.87916 -150.91303)"/><path d="M698.23374,585.55622c-7.1761-2.09072-14.08877-5.02-21.34476-6.84635-9.24624-2.32735-18.70974-3.59419-28.04936-5.46872-9.51127-1.87088-18.91566-4.26388-28.46688-5.9322-12.20542-2.051-24.53391-3.35492-36.86888-4.32352-23.14688-1.2495-46.35531-.916-69.51084-2.12621-8.37526-.27853-19.1969-.99836-26.203-1.8951-7.22145-1.13594-14.36273-2.72147-21.54153-4.09215,8.23438,2.73206,16.37,5.88719,24.87263,7.699,14.716,3.16268,29.74891,4.67912,44.7424,5.81276,16.30816,1.16111,32.69514.51275,48.99115,1.8976,11.2659.95174,21.17527,2.14557,30.0925,3.57159,9.48887,1.61468,18.8625,3.85559,28.3816,5.30522,14.44558,2.37175,28.919,2.19375,42.19939,5.05023,5.957,1.31678,12.00542,2.0704,18.01582,3.07767C701.78967,586.664,700.01211,586.10688,698.23374,585.55622Z" transform="translate(-420.87916 -150.91303)"/><path d="M709.26833,616.16719c-12.20325-1.86542-24.42729-3.61241-36.57225-5.83834-7.72049-1.46954-15.29847-3.61477-23.0446-4.95685-14.54976-2.75062-29.38967-2.88719-44.14078-3.36147-27.09526-1.16138-53.94679-5.11285-80.86392-8.152-11.27669-1.08527-22.62922-.95376-33.92507-1.73741-12.125-.82462-24.1582-2.61749-36.27725-3.52341,12.18355,2.653,24.2362,5.94164,36.55633,7.92649,14.14491,2.11433,26.51065,2.87807,38.83671,4.63155,26.30823,3.79533,63.02326,8.24652,93.09875,8.9123,17.08817.855,29.238,2.8411,45.58259,5.1868,10.38926,1.14768,20.86434,1.34815,31.30812,1.49882,4.58344.06559,9.17066-.01862,13.75113.18569C712.14843,616.64687,710.71014,616.3962,709.26833,616.16719Z" transform="translate(-420.87916 -150.91303)"/><path d="M636.10224,667.50978c-11.51232-5.35184-23.76442-8.92168-36.12962-11.68808a224.43654,224.43654,0,0,0-31.84738-5.09679c-21.7642-1.44734-44.0968-.254-65.34035-3.66916,19.08489,6.1743,39.12712,8.20989,58.99824,10.14635,13.36085,1.43755,28.30413,3.36174,35.2851,4.30281,10.75227,1.41549,24.339,3.23988,36.98924,6.31148,1.9727.48744,3.93622,1.01975,5.86466,1.66083Q638.03917,668.44242,636.10224,667.50978Z" transform="translate(-420.87916 -150.91303)"/><path d="M628.55421,720.17111c-6.13536-5.33552-13.79728-8.36636-21.24814-11.3775a124.67992,124.67992,0,0,0-25.94791-7.70591c-12.02188-2.17715-24.27993-2.307-36.46294-2.275-10.10209-.11916-20.20444-.28-30.30626-.04413,9.88158,1.50658,19.73914,3.17618,29.63448,4.591,19.24818,2.48686,31.80393,3.462,51.86856,8.19065,9.96524,2.638,21.2727,4.54188,29.91166,8.54261a56.32947,56.32947,0,0,1,6.94587,4.14782C631.53283,722.83259,630.07375,721.46744,628.55421,720.17111Z" transform="translate(-420.87916 -150.91303)"/></svg>